<svg xmlns="http://www.w3.org/2000/svg" viewBox="0 0 148.91 148.78"><defs><style>.cls-1{fill:#032841;}.cls-2{fill:#892754;}.cls-3{fill:#8a2b55;}.cls-4{fill:#843559;}.cls-5{fill:#f5edf3;}.cls-6{fill:#ed5a51;}.cls-7{fill:#f9b612;}.cls-8{fill:#d0607c;}.cls-9{fill:#1a2b3e;}.cls-10{fill:#a32f66;}.cls-11{fill:#a43064;}.cls-12{fill:#f07063;}.cls-13{fill:#b83a7e;}.cls-14{fill:#fdc717;}.cls-15{fill:#f48879;}</style></defs><title>Ativo 1</title><g id="Camada_2" data-name="Camada 2"><g id="Camada_1-2" data-name="Camada 1"><path class="cls-1" d="M145.55,96.27c-9.4,27.7-28.39,45.06-57,51-35.46,7.37-71.21-12.9-83.87-46.72C4.44,99.78,4.27,99,4,98.17a3.87,3.87,0,0,0,1.49-.41,88.9,88.9,0,0,1,25.06-9.69c.91,0,1.86.37,2.67-.37,1.85-.19,3.7-.36,5.55-.56a65.14,65.14,0,0,1,23.91,1.91,26.07,26.07,0,0,1,2.73.44c.83.17,1.45.35,1.81.45,3.21.91,4.71,1.59,7.26,2.27,3.37.89,4.52.7,6.8,1.81l1.81.91,3.63,1.81a16.84,16.84,0,0,1,3.18.91A16.31,16.31,0,0,1,92.63,99c3.65.72,6.93,2.54,10.55,3.44,7.24,1.8,14.49,3,21.94,2,3.16-.44,6.38-.86,9.17-2.62l.67-.17c1.22.2,2.27,1.78,3.76.57-.46-.69-1.68-.27-1.61-1.4l1.57-1c.77.28,1-.47,1.49-.66C142.07,98.34,143.25,96.23,145.55,96.27Z"/><path class="cls-2" d="M30.59,88.07A88.9,88.9,0,0,0,5.53,97.76,3.87,3.87,0,0,1,4,98.17,57.91,57.91,0,0,1,.23,80.33c-1.31-18.22,3-35,14-49.7C30.33,9.2,52-.95,78.84.07A8.39,8.39,0,0,1,80,.23.91.91,0,0,0,81.08,1c1.84-.16,3.51.55,5.24.92-.52.62-1.24.44-1.9.44-5.39,0-10.56.74-15.29,3.65a21.81,21.81,0,0,0-9,10.67C58.19,21.64,57.87,27,58.2,32.25a58.89,58.89,0,0,0-10.61,8A56.92,56.92,0,0,0,32.34,65.11c-1.2,4-1.5,8.09-2.27,12.13-1.09-.64-1.92-1.07-1.85.93.08,2.42.68,5-1.56,6.83,2.2,1.52,2.23-1,3.39-1.41.13.63-.11,1.36.47,1.88Z"/><path class="cls-3" d="M145.55,96.27c-2.3,0-3.48,2.07-5.38,2.82-.45.18-.68.81-1.3.71a34.63,34.63,0,0,0,2.74-11.24l.07-1.34c.69-.82.25-1.83.46-2.73a1.52,1.52,0,0,0,.4-1.25c-.08-2.48-.14-4.91,1.59-7a5.81,5.81,0,0,0,1.09-2.66c.92-5.56,1.71-11.14.07-16.72,1-.12.73,1.45,1.73,1.36a71.48,71.48,0,0,1,.24,31.55C146.81,91.94,146.12,94.09,145.55,96.27Z"/><path class="cls-4" d="M147,58.19c-1,.09-.71-1.48-1.74-1.36-.44-5.5-2.69-10.33-5.49-15l0-.87c0-.62-.25-.93-.87-.94a74,74,0,0,0-7.6-11.22A73.64,73.64,0,0,0,114,13.15c-1.09-.68-2.72-1-3.24-2.53-.29-.62-.84-.48-1.34-.47l-1.77-.51c-.06-.78-.59-1.05-1.24-1.4-1.91-1-4-1.51-5.94-2.4C96,3.76,91.07,3.12,86.32,2,84.59,1.59,82.92.88,81.08,1A.91.91,0,0,1,80,.23a70.15,70.15,0,0,1,34.8,11.61c2.68,1.74,5.21,3.69,7.82,5.55.14.14.29.29.46.44s.32.28.47.4.55.47.82.71l.91.84L126.58,21l.55.53a.34.34,0,0,0,.29.31Q132,27,136.14,32.47l.52.78.39.58c4.31,7.15,7.87,14.63,9.73,22.82C146.89,57.16,146.94,57.68,147,58.19Z"/><path class="cls-5" d="M127.13,21.57l-.55-.53Z"/><path class="cls-5" d="M137.05,33.83l-.39-.58Z"/><path class="cls-6" d="M30.07,77.24c.77-4,1.07-8.14,2.27-12.13A56.92,56.92,0,0,1,47.59,40.22a58.89,58.89,0,0,1,10.61-8v.21c1.1,3.7,1.86,7.49,3.11,11.16A61.28,61.28,0,0,0,66.53,54.7c2.06,3.56,4.93,6.6,6.68,10.36a56.77,56.77,0,0,1-3,5.71c-3.06,5.87-5.2,11.9-4.69,18.64l-2.76-.36a65.14,65.14,0,0,0-23.91-1.91c-1.85.2-3.7.37-5.55.56-2-.32-2.68-1.66-2.68-3.54l-.06,1.31c-.58-.52-.34-1.25-.47-1.88C30.06,81.48,30.06,79.36,30.07,77.24Z"/><path class="cls-7" d="M65.48,89.41c-.51-6.74,1.63-12.77,4.69-18.64a58,58,0,0,0,3-5.72l1.33.13a1.54,1.54,0,0,0,.38.88A75.24,75.24,0,0,0,88.69,78.61c5.52,3.69,11.09,7.43,17.59,9.16,4.1,1.1,8.19,2.45,12.5,2.62a31.56,31.56,0,0,0,15.26-3c1.88-.91,2.9-1.65,2.59-3.72.62.25.37.83.49,1.27,0,.82,0,1.65,0,2.47-.14,4.9-.25,9.8-2.62,14.28-2.84,1.86-6.11,2.28-9.34,2.73-7.45,1-14.7-.16-21.94-2-3.62-.9-6.9-2.72-10.55-3.44q-3.54-1.26-7.23-2.7-2.31-.91-4.53-1.85l1.36.46L81,94.5C79.77,94.09,76.18,92.9,65.48,89.41Z"/><path class="cls-6" d="M134.46,101.69c2.37-4.48,2.48-9.38,2.62-14.28,0-.82,0-1.65,0-2.47a34.33,34.33,0,0,1,4.93-3.62l.09,3.17c-.21.9.23,1.91-.46,2.73-.63.41-.63.86-.07,1.34a34.63,34.63,0,0,1-2.74,11.24l-1.76,1a2.65,2.65,0,0,0-1.88.86Z"/><path class="cls-8" d="M30.52,85.47l.06-1.31c0,1.88.63,3.22,2.68,3.54-.81.74-1.76.38-2.67.37C30.57,87.2,30.54,86.33,30.52,85.47Z"/><path class="cls-9" d="M135.23,101.7a2.65,2.65,0,0,1,1.88-.86c0,1.08,1.16.68,1.61,1.36C137.34,103.32,136.34,102,135.23,101.7Z"/><path class="cls-10" d="M86.32,2c4.75,1.16,9.64,1.8,14.15,3.88,1.93.89,4,1.4,5.94,2.4.65.35,1.18.62,1.24,1.4-2.07-.55-4.12-1.18-6.2-1.64-4.59-1-9.31,2.92-8.74,7.39a24.9,24.9,0,0,0,3.12,10.12l-1.36,0a4,4,0,0,0-4.84-1.6,11.16,11.16,0,0,1-8.1.11c-.81-.3-1.43.17-1.57,1.09-1.61.75-3.39.47-5.08.85a50.5,50.5,0,0,0-16.67,6.52v-.21c-.33-5.3,0-10.61,1.93-15.53a21.81,21.81,0,0,1,9-10.67C73.86,3.14,79,2.37,84.42,2.4,85.08,2.4,85.8,2.58,86.32,2Z"/><path class="cls-3" d="M30.07,77.24c0,2.12,0,4.24,0,6.35-1.16.36-1.19,2.93-3.39,1.41,2.24-1.82,1.64-4.41,1.56-6.83C28.15,76.17,29,76.6,30.07,77.24Z"/><path class="cls-11" d="M142.14,84.49l-.09-3.17a49.93,49.93,0,0,0-1.26-13.4c-.94-4.52-3-8.59-4.56-12.88,3-.59,5-4.17,4.34-7.62-.35-1.83-1.22-3.61-.77-5.55,2.8,4.63,5,9.46,5.49,15,1.64,5.58.85,11.16-.07,16.72a5.81,5.81,0,0,1-1.09,2.66c-1.73,2.12-1.67,4.55-1.59,7A1.52,1.52,0,0,1,142.14,84.49Z"/><path class="cls-12" d="M141.61,88.56c-.56-.48-.56-.93.07-1.34C141.66,87.67,141.63,88.12,141.61,88.56Z"/><path class="cls-13" d="M139.8,41.87c-.45,1.94.42,3.72.77,5.55.66,3.45-1.31,7-4.34,7.62l-.5-.42a45.05,45.05,0,0,0-7.82-11.21A54.84,54.84,0,0,0,97.2,26c-.34-.48-.89-.37-1.37-.46a24.9,24.9,0,0,1-3.12-10.12C92.14,10.92,96.86,7,101.45,8c2.08.46,4.13,1.09,6.2,1.64l1.77.51c.32.49.85.42,1.34.47.52,1.52,2.15,1.85,3.24,2.53a73.64,73.64,0,0,1,17.3,15.69,74,74,0,0,1,7.6,11.22.88.88,0,0,0,.87.94Z"/><path class="cls-11" d="M139.77,41a.88.88,0,0,1-.87-.94C139.52,40.07,139.82,40.38,139.77,41Z"/><path class="cls-10" d="M110.76,10.62c-.49,0-1,0-1.34-.47C109.92,10.14,110.47,10,110.76,10.62Z"/><path class="cls-12" d="M135.73,54.62l.5.42c1.53,4.29,3.62,8.36,4.56,12.88a49.93,49.93,0,0,1,1.26,13.4,34.33,34.33,0,0,0-4.93,3.62c-.12-.44.13-1-.49-1.27-.37-.34-.34-.8-.4-1.25a32.37,32.37,0,0,0-3.35-10.68,36.4,36.4,0,0,0-12.56-13.46,34.49,34.49,0,0,0-16.9-5.5,37.36,37.36,0,0,0-12.48,1.63A34.38,34.38,0,0,0,78.53,61c-1,.79-2.35,1.24-2.68,2.71-.67-.05-1.27,0-1.31.89h0l-1.32.49c-1.75-3.76-4.62-6.8-6.68-10.36a61.28,61.28,0,0,1-5.22-11.08c-1.25-3.67-2-7.46-3.11-11.16a50.64,50.64,0,0,1,16.68-6.52c1.69-.38,3.47-.1,5.08-.85,4.85-.47,9.66.56,14.51.4l1.36,0c.48.09,1,0,1.37.46-.45.11-1.11.31-.64.82,1.41,1.52,1.89,3.56,3.12,5.2,5.84,7.76,12.58,14.54,21,19.48a28.44,28.44,0,0,0,12.21,4.29C133.86,55.83,135.2,56,135.73,54.62Z"/><path class="cls-14" d="M75.85,63.67c.33-1.47,1.69-1.92,2.68-2.71a34.38,34.38,0,0,1,12.41-6.55,37.36,37.36,0,0,1,12.48-1.63,34.49,34.49,0,0,1,16.9,5.5,36.4,36.4,0,0,1,12.56,13.46,32.37,32.37,0,0,1,3.35,10.68c.06.45,0,.91.4,1.25.31,2.07-.71,2.81-2.59,3.72a31.56,31.56,0,0,1-15.26,3c-4.31-.17-8.4-1.52-12.5-2.62C99.78,86,94.21,82.3,88.69,78.61A75.24,75.24,0,0,1,74.92,66.06a2,2,0,0,1-.39-1.49h0A1.37,1.37,0,0,0,75.85,63.67Z"/><path class="cls-11" d="M94.47,25.49c-4.85.16-9.66-.87-14.51-.4.14-.92.76-1.39,1.57-1.09a11.16,11.16,0,0,0,8.1-.11A4,4,0,0,1,94.47,25.49Z"/><path class="cls-15" d="M135.73,54.62c-.53,1.4-1.87,1.21-2.84,1.14a28.44,28.44,0,0,1-12.21-4.29c-8.42-4.94-15.16-11.72-21-19.48-1.23-1.64-1.71-3.68-3.12-5.2-.47-.51.19-.71.64-.82a54.84,54.84,0,0,1,30.71,17.44A45.05,45.05,0,0,1,135.73,54.62Z"/><path class="cls-7" d="M75.85,63.67a1.37,1.37,0,0,1-1.31.89C74.58,63.67,75.18,63.62,75.85,63.67Z"/></g></g></svg>