<svg xmlns="http://www.w3.org/2000/svg" viewBox="0 0 731.25 119.3"><defs><style>.cls-1{fill:#032841;}.cls-2{fill:#892754;}.cls-3{fill:#8a2b55;}.cls-4{fill:#843559;}.cls-5{fill:#f5edf3;}.cls-6{fill:#ed5a51;}.cls-7{fill:#f9b612;}.cls-8{fill:#d0607c;}.cls-9{fill:#1a2b3e;}.cls-10{fill:#a32f66;}.cls-11{fill:#a43064;}.cls-12{fill:#f07063;}.cls-13{fill:#b83a7e;}.cls-14{fill:#fdc717;}.cls-15{fill:#f48879;}</style></defs><title>Ativo 2</title><g id="Camada_2" data-name="Camada 2"><g id="Camada_1-2" data-name="Camada 1"><path d="M54,35.35l-9.11,7.31a36.43,36.43,0,0,0-6.55-5.59c-2-1.23-4.78-1.84-8.48-1.84Q23.77,35.23,20,38A8.37,8.37,0,0,0,16.22,45a8.57,8.57,0,0,0,3.3,6.61q3.29,2.86,11.23,6.27A80.34,80.34,0,0,1,43.1,64.25a31.37,31.37,0,0,1,7.26,6.49,25.89,25.89,0,0,1,4.23,7.49A25.06,25.06,0,0,1,56,86.56a23.52,23.52,0,0,1-7.46,17.51,25,25,0,0,1-18.07,7.23,30.63,30.63,0,0,1-18.26-5.66Q4.28,100,0,88.68l11.25-3.17q6.13,13.9,18.8,13.9a14.69,14.69,0,0,0,10.22-3.68,12,12,0,0,0,4.07-9.27,12.51,12.51,0,0,0-2.14-6.74,19.06,19.06,0,0,0-5.3-5.57,56.63,56.63,0,0,0-10.09-5,71.19,71.19,0,0,1-10.64-5.19,27.78,27.78,0,0,1-6.46-5.62,24.21,24.21,0,0,1-4-6.49,18.88,18.88,0,0,1-1.26-6.91,19.38,19.38,0,0,1,7.11-15.09,25.29,25.29,0,0,1,17.26-6.23A35,35,0,0,1,42.46,26.5,28,28,0,0,1,54,35.35Z"/><path d="M86.3,66.86Q86.3,49,99.74,36.32a45.34,45.34,0,0,1,32.32-12.73A44.22,44.22,0,0,1,163.8,36.41q13.3,12.83,13.31,30.45A42.47,42.47,0,0,1,164,98.42q-13.15,12.89-32.29,12.88a44.21,44.21,0,0,1-32.12-13A42.43,42.43,0,0,1,86.3,66.86Zm78.85.52a30.4,30.4,0,0,0-9.82-22.95q-9.83-9.33-24.17-9.33a32.26,32.26,0,0,0-23.37,9.49,30.69,30.69,0,0,0-9.73,22.79,30,30,0,0,0,10,22.83q10,9.33,24.46,9.33a31.61,31.61,0,0,0,23-9.53A30.7,30.7,0,0,0,165.15,67.38Z"/><path d="M213.25,26.18h11.12V97.4h26.82v11.12H213.25Z"/><path d="M332.71,35.35l-9.11,7.31a36.43,36.43,0,0,0-6.55-5.59q-2.93-1.84-8.48-1.84-6.06,0-9.83,2.73A8.36,8.36,0,0,0,295,45a8.56,8.56,0,0,0,3.29,6.61q3.28,2.86,11.23,6.27a80.34,80.34,0,0,1,12.35,6.35,31.37,31.37,0,0,1,7.26,6.49,25.89,25.89,0,0,1,4.23,7.49,25.06,25.06,0,0,1,1.39,8.33,23.49,23.49,0,0,1-7.47,17.51,25,25,0,0,1-18.07,7.23,30.58,30.58,0,0,1-18.25-5.66q-7.92-5.65-12.19-17L290,85.51q6.13,13.9,18.81,13.9A14.68,14.68,0,0,0,319,95.73a12,12,0,0,0,4.07-9.27A12.58,12.58,0,0,0,321,79.72a19.22,19.22,0,0,0-5.31-5.57,56.46,56.46,0,0,0-10.08-5,71.39,71.39,0,0,1-10.65-5.19,27.53,27.53,0,0,1-6.45-5.62,23.71,23.71,0,0,1-4-6.49,18.68,18.68,0,0,1-1.27-6.91,19.38,19.38,0,0,1,7.11-15.09,25.29,25.29,0,0,1,17.26-6.23,35,35,0,0,1,13.64,2.91A28,28,0,0,1,332.71,35.35Z"/><path d="M363.43,26.18h50.35V37.42H394.13v71.1H383V37.42H363.43Z"/><path d="M444.49,18l8.6-18h15.25L454.06,18Zm1.62,8.21h11.11v82.34H446.11Z"/><path d="M561.75,29V41.75q-13.32-6.53-24.5-6.52-14.34,0-24.17,9.26a30.07,30.07,0,0,0-9.82,22.76,29.86,29.86,0,0,0,10,23q10.05,9.2,25.17,9.2,11,0,23.27-6.92v12.86a50.8,50.8,0,0,1-24.24,6,45.69,45.69,0,0,1-32.7-13q-13.57-12.94-13.58-31.23,0-18,13.35-30.74a44.8,44.8,0,0,1,32.16-12.79A64.45,64.45,0,0,1,561.75,29Z"/><path d="M594.79,26.18h11.12v82.34H594.79Z"/><path d="M640.44,66.86q0-17.82,13.44-30.54A45.31,45.31,0,0,1,686.2,23.59a44.19,44.19,0,0,1,31.73,12.82q13.32,12.83,13.32,30.45a42.48,42.48,0,0,1-13.16,31.56q-13.15,12.89-32.28,12.88a44.21,44.21,0,0,1-32.12-13A42.39,42.39,0,0,1,640.44,66.86Zm78.85.52a30.44,30.44,0,0,0-9.82-22.95q-9.84-9.33-24.18-9.33a32.23,32.23,0,0,0-23.36,9.49,30.69,30.69,0,0,0-9.73,22.79,30,30,0,0,0,10,22.83q10,9.33,24.46,9.33a31.63,31.63,0,0,0,23-9.53A30.7,30.7,0,0,0,719.29,67.38Z"/><path class="cls-1" d="M179.73,82.85c-6.53,19.23-19.71,31.28-39.53,35.4-24.62,5.12-49.44-9-58.23-32.43-.2-.54-.32-1.1-.47-1.65a2.62,2.62,0,0,0,1-.29,62.15,62.15,0,0,1,17.4-6.73c.63,0,1.29.26,1.85-.25,1.28-.13,2.57-.25,3.85-.39a45.33,45.33,0,0,1,16.6,1.33,16.83,16.83,0,0,1,1.89.3c.58.12,1,.24,1.26.31,2.23.64,3.28,1.11,5,1.58,2.34.62,3.14.49,4.72,1.26.06,0,.08,0,1.26.63l2.52,1.26a11.11,11.11,0,0,1,2.2.63,10.8,10.8,0,0,1,1.87.94c2.54.5,4.81,1.77,7.33,2.39,5,1.26,10.06,2.09,15.23,1.37a15.49,15.49,0,0,0,6.37-1.83l.46-.11c.85.14,1.57,1.23,2.61.4-.32-.48-1.16-.19-1.12-1l1.09-.73c.54.2.7-.32,1-.45C177.31,84.29,178.13,82.82,179.73,82.85Z"/><path class="cls-2" d="M99.93,77.15a62.15,62.15,0,0,0-17.4,6.73,2.62,2.62,0,0,1-1,.29,40.32,40.32,0,0,1-2.65-12.39c-.91-12.65,2.07-24.32,9.71-34.5,11.18-14.88,26.23-21.92,44.86-21.21a7,7,0,0,1,.78.11.64.64,0,0,0,.78.56,12.22,12.22,0,0,1,3.64.64c-.37.43-.87.31-1.32.3a19.4,19.4,0,0,0-10.62,2.54,15.1,15.1,0,0,0-6.25,7.41,24.86,24.86,0,0,0-1.33,10.78,39.35,39.35,0,0,0-17.95,22.81,78.92,78.92,0,0,0-1.58,8.42c-.76-.44-1.34-.74-1.29.65.06,1.67.48,3.47-1.08,4.73,1.52,1.06,1.55-.72,2.35-1,.09.44-.08.94.33,1.3Z"/><path class="cls-3" d="M179.73,82.85c-1.6,0-2.42,1.44-3.73,2-.31.12-.47.56-.91.49A23.93,23.93,0,0,0,177,77.5l.05-.93c.47-.57.17-1.27.32-1.9a1,1,0,0,0,.27-.86c-.06-1.73-.1-3.42,1.11-4.88a4.08,4.08,0,0,0,.75-1.85c.64-3.87,1.19-7.74.05-11.61.71-.08.51,1,1.21,1a49.61,49.61,0,0,1,.16,21.89C180.61,79.84,180.13,81.34,179.73,82.85Z"/><path class="cls-4" d="M180.76,56.42c-.7.06-.5-1-1.21-1a23.7,23.7,0,0,0-3.81-10.39l0-.6c0-.43-.17-.64-.6-.65a53.85,53.85,0,0,0-17.29-18.68c-.75-.48-1.88-.7-2.25-1.76-.2-.43-.58-.33-.93-.33l-1.23-.35c0-.54-.41-.73-.86-1-1.33-.69-2.78-1-4.12-1.67-3.13-1.44-6.52-1.88-9.82-2.69a12.22,12.22,0,0,0-3.64-.64.64.64,0,0,1-.78-.56,48.63,48.63,0,0,1,24.16,8.06c1.86,1.21,3.62,2.56,5.42,3.85l.33.31.32.27.57.49.63.59.94.87L167,31a.23.23,0,0,0,.2.22q3.19,3.52,6,7.35l.36.54.27.4a53.93,53.93,0,0,1,6.75,15.85C180.66,55.7,180.7,56.06,180.76,56.42Z"/><path class="cls-5" d="M167,31l-.38-.37Z"/><path class="cls-5" d="M173.83,39.5l-.27-.4Z"/><path class="cls-6" d="M99.57,69.64a78.92,78.92,0,0,1,1.58-8.42,39.43,39.43,0,0,1,10.58-17.28,40,40,0,0,1,7.36-5.53v.14c.76,2.57,1.29,5.2,2.15,7.75A42.87,42.87,0,0,0,124.87,54c1.44,2.47,3.43,4.58,4.64,7.19a38.37,38.37,0,0,1-2.1,4c-2.13,4.08-3.61,8.27-3.26,13l-1.92-.25a45.33,45.33,0,0,0-16.6-1.33c-1.28.14-2.57.26-3.85.39-1.42-.22-1.86-1.15-1.86-2.46l0,.91c-.41-.36-.24-.86-.33-1.3C99.56,72.58,99.56,71.11,99.57,69.64Z"/><path class="cls-7" d="M124.15,78.09c-.35-4.68,1.13-8.87,3.26-13a40.65,40.65,0,0,0,2.11-4l.92.1a1.14,1.14,0,0,0,.26.61,52.69,52.69,0,0,0,9.56,8.71c3.83,2.56,7.7,5.15,12.21,6.36a40.14,40.14,0,0,0,8.68,1.82,21.92,21.92,0,0,0,10.6-2.09c1.3-.63,2-1.14,1.79-2.58.43.17.26.58.34.88,0,.58,0,1.15,0,1.72-.09,3.4-.17,6.8-1.82,9.91-2,1.29-4.24,1.58-6.48,1.9-5.17.72-10.21-.11-15.23-1.37-2.52-.62-4.79-1.89-7.33-2.38-1.64-.59-3.31-1.21-5-1.88-1.07-.42-2.12-.85-3.15-1.28l.94.32-.85-.3C134.07,81.33,131.58,80.51,124.15,78.09Z"/><path class="cls-6" d="M172,86.61c1.65-3.11,1.73-6.51,1.82-9.91,0-.57,0-1.14,0-1.72a24,24,0,0,1,3.42-2.51l.07,2.2c-.15.63.15,1.33-.32,1.9-.44.28-.44.6-.05.93a23.93,23.93,0,0,1-1.91,7.8l-1.22.72a1.85,1.85,0,0,0-1.3.6Z"/><path class="cls-8" d="M99.88,75.35l0-.91c0,1.31.44,2.24,1.86,2.46-.56.51-1.22.26-1.85.25C99.91,76.55,99.89,76,99.88,75.35Z"/><path class="cls-9" d="M172.57,86.62a1.85,1.85,0,0,1,1.3-.6c0,.75.81.47,1.12,1C174,87.74,173.34,86.86,172.57,86.62Z"/><path class="cls-10" d="M138.62,17.38c3.3.81,6.69,1.25,9.82,2.69,1.34.62,2.79,1,4.12,1.67.45.24.82.43.86,1-1.43-.38-2.86-.82-4.3-1.14-3.19-.69-6.47,2-6.07,5.13a17.33,17.33,0,0,0,2.17,7h-.95a2.76,2.76,0,0,0-3.36-1.11,7.73,7.73,0,0,1-5.62.08c-.56-.21-1,.12-1.09.75-1.12.53-2.35.33-3.53.6a35.2,35.2,0,0,0-11.57,4.52v-.14a25,25,0,0,1,1.34-10.78,15.1,15.1,0,0,1,6.25-7.41,19.4,19.4,0,0,1,10.62-2.54C137.75,17.69,138.25,17.81,138.62,17.38Z"/><path class="cls-3" d="M99.57,69.64c0,1.47,0,2.94,0,4.41-.8.25-.83,2-2.35,1,1.56-1.26,1.14-3.06,1.08-4.73C98.23,68.9,98.81,69.2,99.57,69.64Z"/><path class="cls-11" d="M177.37,74.67c0-.73-.05-1.47-.07-2.2a34.66,34.66,0,0,0-.87-9.3c-.65-3.14-2.1-6-3.17-9,2.11-.4,3.47-2.89,3-5.28-.25-1.27-.85-2.51-.54-3.86a23.7,23.7,0,0,1,3.81,10.39c1.14,3.87.59,7.74-.05,11.61a4.08,4.08,0,0,1-.75,1.85c-1.21,1.46-1.17,3.15-1.11,4.88A1,1,0,0,1,177.37,74.67Z"/><path class="cls-12" d="M177,77.5c-.39-.33-.39-.65.05-.93C177,76.88,177,77.19,177,77.5Z"/><path class="cls-13" d="M175.74,45.08c-.31,1.35.29,2.59.54,3.86.45,2.39-.91,4.88-3,5.28l-.34-.28a31.57,31.57,0,0,0-5.43-7.79,38,38,0,0,0-21.32-12.1c-.24-.34-.62-.26-.95-.33a17.33,17.33,0,0,1-2.17-7c-.4-3.1,2.88-5.82,6.07-5.13,1.44.32,2.87.76,4.3,1.14l1.23.35c.23.35.59.29.93.33.37,1.06,1.5,1.28,2.25,1.76a53.85,53.85,0,0,1,17.29,18.68.6.6,0,0,0,.6.65Z"/><path class="cls-11" d="M175.72,44.48a.6.6,0,0,1-.6-.65C175.55,43.84,175.75,44.05,175.72,44.48Z"/><path class="cls-10" d="M155.58,23.39c-.34,0-.7,0-.93-.33C155,23.06,155.38,23,155.58,23.39Z"/><path class="cls-12" d="M172.92,53.94l.34.28c1.07,3,2.52,5.81,3.17,9a34.66,34.66,0,0,1,.87,9.3A24,24,0,0,0,173.88,75c-.08-.3.09-.71-.34-.88-.26-.23-.24-.55-.28-.86a22.45,22.45,0,0,0-2.32-7.42,25.25,25.25,0,0,0-8.73-9.34,23.86,23.86,0,0,0-11.72-3.82,25.59,25.59,0,0,0-8.67,1.13,23.77,23.77,0,0,0-8.61,4.54c-.69.56-1.63.87-1.86,1.88-.47,0-.88,0-.91.62h0l-.92.34c-1.21-2.61-3.2-4.72-4.64-7.19a42.87,42.87,0,0,1-3.62-7.69c-.86-2.55-1.39-5.18-2.15-7.75A35.2,35.2,0,0,1,130.67,34c1.18-.27,2.41-.07,3.53-.6,3.37-.32,6.71.39,10.07.28h.95c.33.07.71,0,.95.33-.31.07-.77.21-.45.56,1,1.06,1.31,2.48,2.17,3.62a50,50,0,0,0,14.58,13.52,19.79,19.79,0,0,0,8.47,3C171.61,54.78,172.55,54.91,172.92,53.94Z"/><path class="cls-14" d="M131.35,60.21c.23-1,1.17-1.32,1.86-1.88a23.77,23.77,0,0,1,8.61-4.54,25.59,25.59,0,0,1,8.67-1.13,23.86,23.86,0,0,1,11.72,3.82,25.25,25.25,0,0,1,8.73,9.34,22.45,22.45,0,0,1,2.32,7.42c0,.31,0,.63.28.86.21,1.44-.49,2-1.79,2.58a21.92,21.92,0,0,1-10.6,2.09A40.14,40.14,0,0,1,152.47,77c-4.51-1.21-8.38-3.8-12.21-6.36a52.69,52.69,0,0,1-9.56-8.71,1.4,1.4,0,0,1-.27-1h0A.94.94,0,0,0,131.35,60.21Z"/><path class="cls-11" d="M144.27,33.71c-3.36.11-6.7-.6-10.07-.28.1-.63.53-1,1.09-.75a7.73,7.73,0,0,0,5.62-.08A2.76,2.76,0,0,1,144.27,33.71Z"/><path class="cls-15" d="M172.92,53.94c-.37,1-1.31.84-2,.79a19.79,19.79,0,0,1-8.47-3,50,50,0,0,1-14.58-13.52c-.86-1.14-1.19-2.56-2.17-3.62-.32-.35.14-.49.45-.56a38,38,0,0,1,21.32,12.1A31.57,31.57,0,0,1,172.92,53.94Z"/><path class="cls-7" d="M131.35,60.21a.94.94,0,0,1-.91.62C130.47,60.22,130.88,60.18,131.35,60.21Z"/></g></g></svg>